<svg width="10" height="11" viewBox="0 0 10 11" fill="none" xmlns="http://www.w3.org/2000/svg">
<path d="M6.05745 5.50002L9.28245 2.28252C9.42368 2.14129 9.50302 1.94974 9.50302 1.75002C9.50302 1.55029 9.42368 1.35874 9.28245 1.21752C9.14123 1.07629 8.94968 0.996948 8.74995 0.996948C8.55023 0.996948 8.35868 1.07629 8.21745 1.21752L4.99995 4.44252L1.78245 1.21752C1.64123 1.07629 1.44968 0.996948 1.24995 0.996948C1.05023 0.996948 0.858682 1.07629 0.717454 1.21752C0.576226 1.35874 0.496885 1.55029 0.496885 1.75002C0.496885 1.94974 0.576226 2.14129 0.717454 2.28252L3.94245 5.50002L0.717454 8.71752C0.647158 8.78724 0.591362 8.87019 0.553286 8.96158C0.515209 9.05298 0.495605 9.15101 0.495605 9.25002C0.495605 9.34903 0.515209 9.44706 0.553286 9.53845C0.591362 9.62984 0.647158 9.71279 0.717454 9.78252C0.787176 9.85281 0.870127 9.90861 0.961522 9.94669C1.05292 9.98476 1.15095 10.0044 1.24995 10.0044C1.34896 10.0044 1.44699 9.98476 1.53839 9.94669C1.62978 9.90861 1.71273 9.85281 1.78245 9.78252L4.99995 6.55752L8.21745 9.78252C8.28718 9.85281 8.37013 9.90861 8.46152 9.94669C8.55292 9.98476 8.65095 10.0044 8.74995 10.0044C8.84896 10.0044 8.94699 9.98476 9.03839 9.94669C9.12978 9.90861 9.21273 9.85281 9.28245 9.78252C9.35275 9.71279 9.40855 9.62984 9.44662 9.53845C9.4847 9.44706 9.5043 9.34903 9.5043 9.25002C9.5043 9.15101 9.4847 9.05298 9.44662 8.96158C9.40855 8.87019 9.35275 8.78724 9.28245 8.71752L6.05745 5.50002Z" fill="#6D6D6D"/>
</svg>
